<svg width="92px" height=" 56px" data-name="Layer 1" xmlns="http://www.w3.org/2000/svg" viewBox="0 0 99.04 70.41">
             <path d="M17.42,68.26A4.79,4.79,0,0,1,14,66.85a4.61,4.61,0,0,1-1.45-3.44V15.16a1.13,1.13,0,0,1,.32-.83,1.06,1.06,0,0,1,.76-.33,1,1,0,0,1,1.16,1.16V40.84a4.83,4.83,0,0,1,6.11.65A4.77,4.77,0,0,1,22.27,45V63.41a4.83,4.83,0,0,1-4.85,4.85ZM14.74,45V63.41a2.66,2.66,0,0,0,.76,1.88,2.7,2.7,0,0,0,4.6-1.88V45A2.56,2.56,0,0,0,19.3,43,2.66,2.66,0,0,0,14.74,45Z" transform="translate(-12.5 -14)"></path>
             <path d="M37.1,55.31v8.1a2.62,2.62,0,0,0,.76,1.88,2.52,2.52,0,0,0,1.91.8,2.73,2.73,0,0,0,2.68-2.68,1,1,0,0,1,.33-.8,1.1,1.1,0,0,1,.76-.28c.77,0,1.15.36,1.15,1.08a4.64,4.64,0,0,1-1.44,3.44,5,5,0,0,1-7,0,4.61,4.61,0,0,1-1.45-3.44V45A5,5,0,0,1,39.77,40,4.93,4.93,0,0,1,44.69,45v9.19a1,1,0,0,1-1.15,1.16Zm2.67-13A2.58,2.58,0,0,0,37.1,45v8.11h5.35V45a2.56,2.56,0,0,0-.8-1.92A2.64,2.64,0,0,0,39.77,42.29Z" transform="translate(-12.5 -14)"></path>
             <path d="M62,40a4.72,4.72,0,0,1,3.51,1.45A4.8,4.8,0,0,1,66.9,45V67.17a1,1,0,0,1-.32.8,1.15,1.15,0,0,1-.76.29,1,1,0,0,1-1.09-1.09V45A2.55,2.55,0,0,0,63.94,43a2.78,2.78,0,0,0-2-.75A2.65,2.65,0,0,0,60.1,43,2.56,2.56,0,0,0,59.3,45V67.17a1,1,0,0,1-1.08,1.09,1.13,1.13,0,0,1-.76-.29,1,1,0,0,1-.32-.8v-52a1.09,1.09,0,0,1,.32-.83,1,1,0,0,1,.76-.33c.72,0,1.08.39,1.08,1.16V40.84A4.86,4.86,0,0,1,62,40Z" transform="translate(-12.5 -14)"></path><path d="M88.17,68.26a1.13,1.13,0,0,1-.76-.29,1,1,0,0,1-.33-.8V45A2.55,2.55,0,0,0,86.29,43,2.66,2.66,0,0,0,81.73,45V67.17a1,1,0,0,1-.32.8,1.15,1.15,0,0,1-.76.29c-.77,0-1.16-.36-1.16-1.09V45a4.92,4.92,0,0,1,9.84,0V67.17C89.33,67.9,88.94,68.26,88.17,68.26Z" transform="translate(-12.5 -14)"></path><path d="M106.69,68.26a4.76,4.76,0,0,1-3.51-1.41,4.69,4.69,0,0,1-1.41-3.44V45a4.8,4.8,0,0,1,1.41-3.47A4.72,4.72,0,0,1,106.69,40a4.62,4.62,0,0,1,3.43,1.45A4.77,4.77,0,0,1,111.54,45V63.41a4.83,4.83,0,0,1-4.85,4.85Zm0-26a2.78,2.78,0,0,0-2,.75,2.55,2.55,0,0,0-.79,1.92V63.41a2.57,2.57,0,0,0,.79,1.88,2.69,2.69,0,0,0,2,.8,2.72,2.72,0,0,0,2.67-2.68V45a2.55,2.55,0,0,0-.79-1.92A2.65,2.65,0,0,0,106.69,42.29Z" transform="translate(-12.5 -14)"></path><path d="M27.52,75.65,31.1,81.4h0V75.65h1.76v8.57H31l-3.56-5.73h0v5.73H25.65V75.65Z" transform="translate(-12.5 -14)"></path>
             <path d="M42.15,75.65v1.59H37.62v1.83h4.16v1.47H37.62v2.1h4.62v1.58h-6.5V75.65Z" transform="translate(-12.5 -14)"></path>
             <path d="M51,84.22l-1.45-5.83h0L48.1,84.22H46.19l-2.27-8.57h1.89l1.35,5.84h0l1.49-5.84h1.76l1.46,5.91h0l1.4-5.91h1.85l-2.31,8.57Z" transform="translate(-12.5 -14)"></path>
             <path d="M60.85,75.65H63L65,79l2-3.39h2.1l-3.18,5.28v3.29H64V80.89Z" transform="translate(-12.5 -14)"></path>
             <path d="M70.9,78.19a4.23,4.23,0,0,1,.83-1.43,3.75,3.75,0,0,1,1.32-1,4.4,4.4,0,0,1,1.77-.35,4.35,4.35,0,0,1,1.78.35,3.75,3.75,0,0,1,1.32,1,4.4,4.4,0,0,1,.83,1.43A5.4,5.4,0,0,1,79,80a5.22,5.22,0,0,1-.28,1.75,4.31,4.31,0,0,1-.83,1.41,3.83,3.83,0,0,1-1.32.94,4.35,4.35,0,0,1-1.78.34,4.4,4.4,0,0,1-1.77-.34,3.83,3.83,0,0,1-1.32-.94,4.14,4.14,0,0,1-.83-1.41A5.22,5.22,0,0,1,70.61,80,5.4,5.4,0,0,1,70.9,78.19ZM72.62,81a2.83,2.83,0,0,0,.4.92,2,2,0,0,0,1.8.9,2.21,2.21,0,0,0,1.08-.24,2.08,2.08,0,0,0,.72-.66A2.63,2.63,0,0,0,77,81a4.08,4.08,0,0,0,.13-1A4.4,4.4,0,0,0,77,78.88a2.73,2.73,0,0,0-.4-.94,1.91,1.91,0,0,0-.72-.66A2.21,2.21,0,0,0,74.82,77a2.27,2.27,0,0,0-1.08.25,2.07,2.07,0,0,0-.72.66,2.93,2.93,0,0,0-.4.94A4.93,4.93,0,0,0,72.49,80,4.57,4.57,0,0,0,72.62,81Z" transform="translate(-12.5 -14)"></path>
             <path d="M86.14,75.65a2.87,2.87,0,0,1,1,.19,2.34,2.34,0,0,1,.79.51,2.19,2.19,0,0,1,.5.75,2.32,2.32,0,0,1,.18.92,2.62,2.62,0,0,1-.32,1.31,2.07,2.07,0,0,1-1,.84v0a1.51,1.51,0,0,1,.58.29,1.87,1.87,0,0,1,.37.47,2.65,2.65,0,0,1,.21.6c0,.21.07.43.09.64s0,.3,0,.48,0,.38,0,.57a4.32,4.32,0,0,0,.1.54,1.12,1.12,0,0,0,.2.44H87a3.25,3.25,0,0,1-.2-1c0-.38-.06-.74-.11-1.08a1.68,1.68,0,0,0-.4-1,1.4,1.4,0,0,0-1-.32H83.4v3.35H81.52V75.65Zm-.67,3.88a1.44,1.44,0,0,0,1-.29,1.2,1.2,0,0,0,.32-.93,1.17,1.17,0,0,0-.32-.91,1.44,1.44,0,0,0-1-.28H83.4v2.41Z" transform="translate(-12.5 -14)"></path>
             <path d="M93.27,75.65v3.56l3.34-3.56H99L95.62,79l3.67,5.18H96.93l-2.58-3.85-1.08,1.09v2.76H91.38V75.65Z" transform="translate(-12.5 -14)"></path>
           </svg>